<svg id="Grupo_479" data-name="Grupo 479" xmlns="http://www.w3.org/2000/svg" xmlns:xlink="http://www.w3.org/1999/xlink" width="248.302" height="53.603" viewBox="0 0 248.302 53.603">
  <defs>
    <clipPath id="clip-path">
      <rect id="Rectángulo_257" data-name="Rectángulo 257" width="248.302" height="53.603" transform="translate(0 0)" fill="none"/>
    </clipPath>
  </defs>
  <g id="Grupo_476" data-name="Grupo 476" transform="translate(0 0)" clip-path="url(#clip-path)">
    <path id="Trazado_7401" data-name="Trazado 7401" d="M184.823,55.922a15.264,15.264,0,0,1-8.7-2.361,9.691,9.691,0,0,1-4.26-6.582l5.55-1.287a6.164,6.164,0,0,0,2.5,4.229,8.426,8.426,0,0,0,5.11,1.51,7.361,7.361,0,0,0,4.265-1.163,3.968,3.968,0,0,0,1.678-3.555,3.712,3.712,0,0,0-.5-1.807,5.178,5.178,0,0,0-1.062-1.322,6.893,6.893,0,0,0-1.824-1.007q-1.241-.52-2.03-.77t-2.436-.723A2.655,2.655,0,0,0,182.8,41q-1.287-.383-2.1-.643t-1.973-.723a12.564,12.564,0,0,1-1.886-.9A13.487,13.487,0,0,1,175.29,37.6,5.835,5.835,0,0,1,174,36.143a7.922,7.922,0,0,1-.78-1.815,8.782,8.782,0,0,1,2.81-9.04,12.584,12.584,0,0,1,7.929-2.414,17.322,17.322,0,0,1,4.129.466,14.317,14.317,0,0,1,3.62,1.423,8.865,8.865,0,0,1,2.852,2.55,9.579,9.579,0,0,1,1.626,3.7l-5.211,1.322a5.7,5.7,0,0,0-2.317-3.709,7.618,7.618,0,0,0-4.431-1.233,7.349,7.349,0,0,0-4.195,1.084,3.859,3.859,0,0,0-1.678,3.431,2.943,2.943,0,0,0,.225,1.163,4.3,4.3,0,0,0,.52.924,3.3,3.3,0,0,0,.924.793c.442.26.784.471,1.092.629a10.8,10.8,0,0,0,1.409.555q.951.309,1.48.442l1.661.441c.7.194,1.273.357,1.7.485s.992.308,1.678.542a17.407,17.407,0,0,1,1.678.727,16.871,16.871,0,0,1,1.51.767,8.278,8.278,0,0,1,1.422.948,12.157,12.157,0,0,1,1.15,1.141,5.285,5.285,0,0,1,.924,1.4,9.479,9.479,0,0,1,.556,1.656,8.434,8.434,0,0,1,.225,1.986,9.079,9.079,0,0,1-.96,4.265,7.828,7.828,0,0,1-2.6,2.959,12.333,12.333,0,0,1-3.713,1.618,17.058,17.058,0,0,1-4.436.555" transform="translate(-91.557 -12.18)" fill="#2dafe6"/>
    <path id="Trazado_7402" data-name="Trazado 7402" d="M251.063,54.56,251,55.882H233.728a6.849,6.849,0,0,0,1.986,4.964,6.48,6.48,0,0,0,4.582,1.718,6.222,6.222,0,0,0,3.374-.924A5.822,5.822,0,0,0,245.917,59l4.74.815a10.013,10.013,0,0,1-3.924,5.1,11.3,11.3,0,0,1-6.387,1.828,11.686,11.686,0,0,1-8.512-3.135,11.45,11.45,0,0,1-3.206-8.647,11.577,11.577,0,0,1,3.206-8.642,11.409,11.409,0,0,1,8.37-3.159,10.821,10.821,0,0,1,7.877,2.9,11.409,11.409,0,0,1,3,8.52m-10.872-7.572a6.632,6.632,0,0,0-4.1,1.23,5.966,5.966,0,0,0-2.154,3.758h11.894a5.506,5.506,0,0,0-1.807-3.723,5.763,5.763,0,0,0-3.837-1.265" transform="translate(-121.784 -22.985)" fill="#2dafe6"/>
    <path id="Trazado_7403" data-name="Trazado 7403" d="M295.633,43.165a8.414,8.414,0,0,1,6,2.04,7.6,7.6,0,0,1,2.168,5.815V66.305h-5.238V52.148a4.662,4.662,0,0,0-1.257-3.577,4.542,4.542,0,0,0-3.216-1.163,5.289,5.289,0,0,0-3.846,1.431,5.92,5.92,0,0,0-1.51,4.406v13.06h-5.186V43.593h5.189v2.684a7.691,7.691,0,0,1,2.924-2.3,9.393,9.393,0,0,1,3.966-.809" transform="translate(-151.055 -22.987)" fill="#2dafe6"/>
    <path id="Trazado_7404" data-name="Trazado 7404" d="M346.9,43.165a8.4,8.4,0,0,1,6,2.04,7.619,7.619,0,0,1,2.168,5.815V66.3H349.83V52.148a4.645,4.645,0,0,0-1.252-3.577,4.543,4.543,0,0,0-3.216-1.163,5.287,5.287,0,0,0-3.837,1.431,5.907,5.907,0,0,0-1.51,4.406V66.3h-5.2V43.593h5.2v2.684a7.637,7.637,0,0,1,2.921-2.3,9.39,9.39,0,0,1,3.964-.811" transform="translate(-178.363 -22.987)" fill="#2dafe6"/>
    <path id="Trazado_7405" data-name="Trazado 7405" d="M390.042,27.541a3.2,3.2,0,1,1,.008,0m-2.666,4.335h5.225v22.71h-5.225Z" transform="translate(-206.077 -11.275)" fill="#2dafe6"/>
    <path id="Trazado_7406" data-name="Trazado 7406" d="M417.863,66.762a11.946,11.946,0,0,1-8.6-3.188,11.338,11.338,0,0,1-3.339-8.612,11.3,11.3,0,0,1,3.339-8.556,13.23,13.23,0,0,1,17.224-.014,11.306,11.306,0,0,1,3.339,8.576,11.356,11.356,0,0,1-3.339,8.612,11.958,11.958,0,0,1-8.62,3.188m-.049-4.194a6.367,6.367,0,0,0,4.921-2.1,8.854,8.854,0,0,0,0-11.013,6.391,6.391,0,0,0-4.921-2.084,6.242,6.242,0,0,0-4.845,2.084,8.926,8.926,0,0,0,0,11.013,6.208,6.208,0,0,0,4.845,2.1" transform="translate(-216.235 -23.02)" fill="#2dafe6"/>
    <path id="Trazado_7407" data-name="Trazado 7407" d="M468.9,47.629a6.877,6.877,0,0,1,2.881-2.889,8.966,8.966,0,0,1,4.436-1.174v4.748a8.012,8.012,0,0,0-5.369,1.52,6.508,6.508,0,0,0-1.755,5.109V66.519h-5.2V43.814H468.9Z" transform="translate(-247.123 -23.209)" fill="#2dafe6"/>
    <path id="Trazado_7408" data-name="Trazado 7408" d="M501.581,66.741a11.687,11.687,0,0,1-6.365-1.617,6.724,6.724,0,0,1-3.133-4.683l4.406-1.242a4.71,4.71,0,0,0,1.783,2.852,5.49,5.49,0,0,0,3.3.956,5.284,5.284,0,0,0,2.753-.671,2.323,2.323,0,0,0,1.106-2.2,2.09,2.09,0,0,0-.3-1.119,3.044,3.044,0,0,0-.683-.78,4.771,4.771,0,0,0-1.163-.643,12.906,12.906,0,0,0-1.379-.5l-1.678-.5q-1.057-.318-1.762-.542A16.151,16.151,0,0,1,496.3,55.2a10.387,10.387,0,0,1-1.784-1.133,4.4,4.4,0,0,1-1.365-1.762,6.241,6.241,0,0,1-.442-2.493,5.96,5.96,0,0,1,1.141-3.748,6.539,6.539,0,0,1,3.02-2.2,12.4,12.4,0,0,1,4.286-.688,10.571,10.571,0,0,1,5.727,1.467,6.419,6.419,0,0,1,2.9,4.49l-4.111.973a4.085,4.085,0,0,0-1.634-2.528,5.583,5.583,0,0,0-5.506-.168,2.133,2.133,0,0,0-1.075,1.956,2.619,2.619,0,0,0,.079.671,1.281,1.281,0,0,0,.3.55c.154.168.287.312.409.441a2.079,2.079,0,0,0,.586.4c.268.136.49.242.652.317a7.635,7.635,0,0,0,.815.282l.839.247q.271.081.938.247l.938.238q1.259.336,2.154.635a12.218,12.218,0,0,1,1.965.881,6.87,6.87,0,0,1,1.736,1.273,5.678,5.678,0,0,1,1.127,1.8,6.627,6.627,0,0,1,.442,2.493,6.7,6.7,0,0,1-.723,3.188,5.458,5.458,0,0,1-1.973,2.146,9.61,9.61,0,0,1-2.8,1.163,14.018,14.018,0,0,1-3.374.382" transform="translate(-262.143 -22.999)" fill="#2dafe6"/>
    <circle id="Elipse_96" data-name="Elipse 96" cx="3.859" cy="3.859" r="3.859" transform="translate(47.779 45.816)" fill="#2dafe6"/>
    <path id="Trazado_7409" data-name="Trazado 7409" d="M51.838.9a15.765,15.765,0,0,0-15.75,3.182C33.162,6.83,30.357,9.7,27.5,12.531q-6.057,6-12.08,12.021c-.77.762-.824.74-1.591-.049-1.092-1.124-2.2-2.2-3.29-3.343a8.131,8.131,0,0,1-.907-1.114l-.049-.071a7.122,7.122,0,0,1-.714-1.439c-5.253-8.007-2.01-14.069.577-17.11-.027.012-.054.021-.08.033a17.008,17.008,0,0,0-3.523,2.2,15.91,15.91,0,0,0-2.82,21.656,50.171,50.171,0,0,0,4.178,4.5c2.04,2.133,4.149,4.233,6.229,6.352,1.007,1.027,1.194,1.035,2.2.03q2.476-2.453,4.934-4.913Q30.758,21.111,40.96,10.941a7.455,7.455,0,0,1,7.214-2.3,7.188,7.188,0,0,1,5.683,5.384,7.1,7.1,0,0,1,.2,3.184A14.364,14.364,0,0,0,51.838.9" transform="translate(0 -0.012)" fill="#2dafe6"/>
    <path id="Trazado_7410" data-name="Trazado 7410" d="M71.38,21.756l-.043.054a5.706,5.706,0,0,1-.409.441c-2.685,2.772-5.444,5.458-8.168,8.189Q56.844,36.4,50.918,42.377c-.442.467-.749.515-1.233.027-2.463-2.493-4.96-4.951-7.436-7.427-.839-.839-1.141-.881-2,0-1.322,1.29-2.6,2.591-3.9,3.881-.986.986-.991,1.185,0,2.159Q42.836,47.51,49.333,54c.815.815,1.04.819,1.845,0Q64.063,41.1,76.954,28.18A15.962,15.962,0,0,0,81.537,16.6,15.747,15.747,0,0,0,73.82,3.336l.01,0a14.856,14.856,0,0,0-2.48-1.247c-.18-.07-.363-.127-.544-.19a14.363,14.363,0,0,1,2.224,16.313,7.092,7.092,0,0,1-.768,2.274,8.15,8.15,0,0,1-.881,1.268" transform="translate(-18.968 -1.013)" fill="#81cff0"/>
    <path id="Trazado_7411" data-name="Trazado 7411" d="M15.784,18.525a7.109,7.109,0,0,1-.193-4.287A7.528,7.528,0,0,1,28.153,10.63c.542.528,1.1,1.04,1.653,1.55a.735.735,0,0,0,1.035.088.754.754,0,0,0,.106-.109L35.67,7.384a.748.748,0,0,0,0-1.2c-.824-.815-1.594-1.7-2.488-2.428A15.9,15.9,0,0,0,16.36,1.414c-2.587,3.041-5.83,9.1-.577,17.11" transform="translate(-6.91 0)" fill="#2695c4"/>
  </g>
</svg>
